<svg xmlns="http://www.w3.org/2000/svg" width="29.821" height="21.259" viewBox="0 0 29.821 21.259"><defs><style>.a{fill:#fff;}.b{fill:#fc9f0c;}</style></defs><g transform="translate(-182.736 -59.515)"><path class="a" d="M187.394,65.487a4.649,4.649,0,0,1,3.752,1.9H200a20.092,20.092,0,0,1-2.545-3.892,2.748,2.748,0,1,1,4.916-2.458,13.264,13.264,0,0,0,6.666,6.47c.047.019.1.034.143.052a2.746,2.746,0,0,1,1.643,1.638,2.7,2.7,0,0,1,.166.95,2.77,2.77,0,0,1-.807,1.95l-.051.048a2.74,2.74,0,0,1-.95.59,1.367,1.367,0,0,1-.143.052,13.26,13.26,0,0,0-6.666,6.47A2.748,2.748,0,0,1,197.46,76.8,20.014,20.014,0,0,1,200,72.9h-8.859a4.658,4.658,0,1,1-3.752-7.417Z" transform="translate(0)"/><path class="b" d="M188.623,65.487a4.649,4.649,0,0,1,3.752,1.9h8.859a19.976,19.976,0,0,1-2.545-3.892,2.748,2.748,0,0,1,4.916-2.458,13.259,13.259,0,0,0,6.666,6.47c.047.019.094.034.143.052a2.744,2.744,0,0,1,1.642,1.638,2.672,2.672,0,0,1,.166.95,2.77,2.77,0,0,1-.807,1.95l-.051.048a2.723,2.723,0,0,1-.949.59,1.384,1.384,0,0,1-.144.052,13.26,13.26,0,0,0-6.665,6.47,2.748,2.748,0,0,1-4.916-2.458,19.955,19.955,0,0,1,2.543-3.892h-8.858a4.658,4.658,0,1,1-3.752-7.417Z" transform="translate(0.336)"/></g></svg>