<svg xmlns="http://www.w3.org/2000/svg" width="37" height="37" viewBox="0 0 37 37"><defs><style>.a{fill:#fff;}</style></defs><path class="a" d="M18.5,0A18.5,18.5,0,1,0,37,18.5,18.5,18.5,0,0,0,18.5,0ZM13.125,27.966H8.618V14.411h4.506Zm-2.253-15.4h-.03A2.348,2.348,0,1,1,10.9,7.877a2.349,2.349,0,1,1-.029,4.689Zm18.5,15.406H24.866V20.711c0-1.822-.653-3.066-2.283-3.066a2.467,2.467,0,0,0-2.312,1.648,3.086,3.086,0,0,0-.148,1.1v7.57H15.618s.059-12.283,0-13.555h4.511v1.92a4.473,4.473,0,0,1,4.061-2.237c2.965,0,5.187,1.937,5.187,6.1Zm0,0"/></svg>