<svg xmlns="http://www.w3.org/2000/svg" width="37" height="37" viewBox="0 0 37 37"><defs><style>.a{fill:#fff;}.b{fill:#2852a0;}</style></defs><g transform="translate(-199.327 -9923.028)"><circle class="a" cx="18.5" cy="18.5" r="18.5" transform="translate(199.327 9923.028)"/><path class="b" d="M20.621,52.687c.015.2.015.4.015.606a13.239,13.239,0,0,1-13.4,13.267A13.41,13.41,0,0,1,0,64.468a9.843,9.843,0,0,0,1.138.058,9.495,9.495,0,0,0,5.848-1.992,4.713,4.713,0,0,1-4.4-3.234,6,6,0,0,0,.89.072,5.029,5.029,0,0,0,1.24-.159A4.676,4.676,0,0,1,.933,54.636v-.058a4.78,4.78,0,0,0,2.129.592,4.648,4.648,0,0,1-2.1-3.883A4.593,4.593,0,0,1,1.6,48.934a13.435,13.435,0,0,0,9.713,4.88,5.213,5.213,0,0,1-.117-1.068,4.725,4.725,0,0,1,8.152-3.191,9.332,9.332,0,0,0,2.99-1.126A4.659,4.659,0,0,1,20.271,51a9.519,9.519,0,0,0,2.713-.722,10.071,10.071,0,0,1-2.362,2.411Z" transform="translate(206.327 9884.418)"/></g></svg>