<svg xmlns="http://www.w3.org/2000/svg" width="623.168" height="835.521" viewBox="0 0 623.168 835.521"><defs><style>.a{opacity:0.13;mix-blend-mode:multiply;isolation:isolate;}.b{fill:#2852a0;}</style></defs><g class="a" transform="translate(0)"><g transform="translate(0 0)"><rect class="b" width="14.489" height="14.489" transform="translate(0)"/><rect class="b" width="14.489" height="14.489" transform="translate(53.126)"/><rect class="b" width="14.489" height="14.489" transform="translate(106.251)"/><rect class="b" width="14.489" height="14.489" transform="translate(140.464)"/><rect class="b" width="14.489" height="14.489" transform="translate(187.286)"/><rect class="b" width="14.489" height="14.489" transform="translate(234.107)"/><rect class="b" width="14.489" height="14.489" transform="translate(280.929)"/><rect class="b" width="14.489" height="14.489" transform="translate(327.75)"/><rect class="b" width="14.489" height="14.489" transform="translate(372.444)"/><rect class="b" width="14.489" height="14.489" transform="translate(421.393)"/><rect class="b" width="14.489" height="14.489" transform="translate(468.215)"/><rect class="b" width="14.489" height="14.489" transform="translate(502.428)"/><rect class="b" width="14.489" height="14.489" transform="translate(555.554)"/><rect class="b" width="14.489" height="14.489" transform="translate(608.679)"/></g><g transform="translate(0 214.918)"><rect class="b" width="14.489" height="14.489" transform="translate(0 0)"/><rect class="b" width="14.489" height="14.489" transform="translate(53.126 0)"/><rect class="b" width="14.489" height="14.489" transform="translate(106.251 0)"/><rect class="b" width="14.489" height="14.489" transform="translate(140.464 0)"/><rect class="b" width="14.489" height="14.489" transform="translate(187.286 0)"/><rect class="b" width="14.489" height="14.489" transform="translate(234.107 0)"/><rect class="b" width="14.489" height="14.489" transform="translate(280.929 0)"/><rect class="b" width="14.489" height="14.489" transform="translate(327.75 0)"/><rect class="b" width="14.489" height="14.489" transform="translate(372.444 0)"/><rect class="b" width="14.489" height="14.489" transform="translate(421.393 0)"/><rect class="b" width="14.489" height="14.489" transform="translate(468.215 0)"/><rect class="b" width="14.489" height="14.489" transform="translate(502.428 0)"/><rect class="b" width="14.489" height="14.489" transform="translate(555.554 0)"/><rect class="b" width="14.489" height="14.489" transform="translate(608.679 0)"/></g><g transform="translate(0 432.25)"><rect class="b" width="14.489" height="12.074" transform="translate(0 0)"/><rect class="b" width="14.489" height="12.074" transform="translate(53.126 0)"/><rect class="b" width="14.489" height="12.074" transform="translate(106.251 0)"/><rect class="b" width="14.489" height="12.074" transform="translate(140.464 0)"/><rect class="b" width="14.489" height="12.074" transform="translate(187.286 0)"/><rect class="b" width="14.489" height="12.074" transform="translate(234.107 0)"/><rect class="b" width="14.489" height="12.074" transform="translate(280.929 0)"/><rect class="b" width="14.489" height="12.074" transform="translate(327.75 0)"/><rect class="b" width="14.489" height="12.074" transform="translate(372.444 0)"/><rect class="b" width="14.489" height="12.074" transform="translate(421.393 0)"/><rect class="b" width="14.489" height="12.074" transform="translate(468.215 0)"/><rect class="b" width="14.489" height="12.074" transform="translate(502.428 0)"/><rect class="b" width="14.489" height="12.074" transform="translate(555.554 0)"/><rect class="b" width="14.489" height="12.074" transform="translate(608.679 0)"/></g><g transform="translate(0 649.581)"><rect class="b" width="14.489" height="12.074" transform="translate(0 0)"/><rect class="b" width="14.489" height="12.074" transform="translate(53.126 0)"/><rect class="b" width="14.489" height="12.074" transform="translate(106.251 0)"/><rect class="b" width="14.489" height="12.074" transform="translate(140.464 0)"/><rect class="b" width="14.489" height="12.074" transform="translate(187.286 0)"/><rect class="b" width="14.489" height="12.074" transform="translate(234.107 0)"/><rect class="b" width="14.489" height="12.074" transform="translate(280.929 0)"/><rect class="b" width="14.489" height="12.074" transform="translate(327.75 0)"/><rect class="b" width="14.489" height="12.074" transform="translate(372.444 0)"/><rect class="b" width="14.489" height="12.074" transform="translate(421.393 0)"/><rect class="b" width="14.489" height="12.074" transform="translate(468.215 0)"/><rect class="b" width="14.489" height="12.074" transform="translate(502.428 0)"/><rect class="b" width="14.489" height="12.074" transform="translate(555.554 0)"/><rect class="b" width="14.489" height="12.074" transform="translate(608.679 0)"/></g><g transform="translate(0 43.467)"><rect class="b" width="14.489" height="12.074" transform="translate(0 0)"/><rect class="b" width="14.489" height="12.074" transform="translate(53.126 0)"/><rect class="b" width="14.489" height="12.074" transform="translate(106.251 0)"/><rect class="b" width="14.489" height="12.074" transform="translate(140.464 0)"/><rect class="b" width="14.489" height="12.074" transform="translate(187.286 0)"/><rect class="b" width="14.489" height="12.074" transform="translate(234.107 0)"/><rect class="b" width="14.489" height="12.074" transform="translate(280.929 0)"/><rect class="b" width="14.489" height="12.074" transform="translate(327.75 0)"/><rect class="b" width="14.489" height="12.074" transform="translate(372.444 0)"/><rect class="b" width="14.489" height="12.074" transform="translate(421.393 0)"/><rect class="b" width="14.489" height="12.074" transform="translate(468.215 0)"/><rect class="b" width="14.489" height="12.074" transform="translate(502.428 0)"/><rect class="b" width="14.489" height="12.074" transform="translate(555.554 0)"/><rect class="b" width="14.489" height="12.074" transform="translate(608.679 0)"/></g><g transform="translate(0 260.798)"><rect class="b" width="14.489" height="12.074" transform="translate(0 0)"/><rect class="b" width="14.489" height="12.074" transform="translate(53.126 0)"/><rect class="b" width="14.489" height="12.074" transform="translate(106.251 0)"/><rect class="b" width="14.489" height="12.074" transform="translate(140.464 0)"/><rect class="b" width="14.489" height="12.074" transform="translate(187.286 0)"/><rect class="b" width="14.489" height="12.074" transform="translate(234.107 0)"/><rect class="b" width="14.489" height="12.074" transform="translate(280.929 0)"/><rect class="b" width="14.489" height="12.074" transform="translate(327.75 0)"/><rect class="b" width="14.489" height="12.074" transform="translate(372.444 0)"/><rect class="b" width="14.489" height="12.074" transform="translate(421.393 0)"/><rect class="b" width="14.489" height="12.074" transform="translate(468.215 0)"/><rect class="b" width="14.489" height="12.074" transform="translate(502.428 0)"/><rect class="b" width="14.489" height="12.074" transform="translate(555.554 0)"/><rect class="b" width="14.489" height="12.074" transform="translate(608.679 0)"/></g><g transform="translate(0 475.716)"><rect class="b" width="14.489" height="14.489" transform="translate(0 0)"/><rect class="b" width="14.489" height="14.489" transform="translate(53.126 0)"/><rect class="b" width="14.489" height="14.489" transform="translate(106.251 0)"/><rect class="b" width="14.489" height="14.489" transform="translate(140.464 0)"/><rect class="b" width="14.489" height="14.489" transform="translate(187.286 0)"/><rect class="b" width="14.489" height="14.489" transform="translate(234.107 0)"/><rect class="b" width="14.489" height="14.489" transform="translate(280.929 0)"/><rect class="b" width="14.489" height="14.489" transform="translate(327.75 0)"/><rect class="b" width="14.489" height="14.489" transform="translate(372.444 0)"/><rect class="b" width="14.489" height="14.489" transform="translate(421.393 0)"/><rect class="b" width="14.489" height="14.489" transform="translate(468.215 0)"/><rect class="b" width="14.489" height="14.489" transform="translate(502.428 0)"/><rect class="b" width="14.489" height="14.489" transform="translate(555.554 0)"/><rect class="b" width="14.489" height="14.489" transform="translate(608.679 0)"/></g><g transform="translate(0 690.633)"><rect class="b" width="14.489" height="14.489" transform="translate(0 0)"/><rect class="b" width="14.489" height="14.489" transform="translate(53.126 0)"/><rect class="b" width="14.489" height="14.489" transform="translate(106.251 0)"/><rect class="b" width="14.489" height="14.489" transform="translate(140.464 0)"/><rect class="b" width="14.489" height="14.489" transform="translate(187.286 0)"/><rect class="b" width="14.489" height="14.489" transform="translate(234.107 0)"/><rect class="b" width="14.489" height="14.489" transform="translate(280.929 0)"/><rect class="b" width="14.489" height="14.489" transform="translate(327.75 0)"/><rect class="b" width="14.489" height="14.489" transform="translate(372.444 0)"/><rect class="b" width="14.489" height="14.489" transform="translate(421.393 0)"/><rect class="b" width="14.489" height="14.489" transform="translate(468.215 0)"/><rect class="b" width="14.489" height="14.489" transform="translate(502.428 0)"/><rect class="b" width="14.489" height="14.489" transform="translate(555.554 0)"/><rect class="b" width="14.489" height="14.489" transform="translate(608.679 0)"/></g><g transform="translate(0 86.933)"><rect class="b" width="14.489" height="14.489" transform="translate(0 0)"/><rect class="b" width="14.489" height="14.489" transform="translate(53.126 0)"/><rect class="b" width="14.489" height="14.489" transform="translate(106.251 0)"/><rect class="b" width="14.489" height="14.489" transform="translate(140.464 0)"/><rect class="b" width="14.489" height="14.489" transform="translate(187.286 0)"/><rect class="b" width="14.489" height="14.489" transform="translate(234.107 0)"/><rect class="b" width="14.489" height="14.489" transform="translate(280.929 0)"/><rect class="b" width="14.489" height="14.489" transform="translate(327.75 0)"/><rect class="b" width="14.489" height="14.489" transform="translate(372.444 0)"/><rect class="b" width="14.489" height="14.489" transform="translate(421.393 0)"/><rect class="b" width="14.489" height="14.489" transform="translate(468.215 0)"/><rect class="b" width="14.489" height="14.489" transform="translate(502.428 0)"/><rect class="b" width="14.489" height="14.489" transform="translate(555.554 0)"/><rect class="b" width="14.489" height="14.489" transform="translate(608.679 0)"/></g><g transform="translate(0 304.265)"><rect class="b" width="14.489" height="12.074" transform="translate(0 0)"/><rect class="b" width="14.489" height="12.074" transform="translate(53.126 0)"/><rect class="b" width="14.489" height="12.074" transform="translate(106.251 0)"/><rect class="b" width="14.489" height="12.074" transform="translate(140.464 0)"/><rect class="b" width="14.489" height="12.074" transform="translate(187.286 0)"/><rect class="b" width="14.489" height="12.074" transform="translate(234.107 0)"/><rect class="b" width="14.489" height="12.074" transform="translate(280.929 0)"/><rect class="b" width="14.489" height="12.074" transform="translate(327.75 0)"/><rect class="b" width="14.489" height="12.074" transform="translate(372.444 0)"/><rect class="b" width="14.489" height="12.074" transform="translate(421.393 0)"/><rect class="b" width="14.489" height="12.074" transform="translate(468.215 0)"/><rect class="b" width="14.489" height="12.074" transform="translate(502.428 0)"/><rect class="b" width="14.489" height="12.074" transform="translate(555.554 0)"/><rect class="b" width="14.489" height="12.074" transform="translate(608.679 0)"/></g><g transform="translate(0 519.182)"><rect class="b" width="14.489" height="12.074" transform="translate(0 0)"/><rect class="b" width="14.489" height="12.074" transform="translate(53.126 0)"/><rect class="b" width="14.489" height="12.074" transform="translate(106.251 0)"/><rect class="b" width="14.489" height="12.074" transform="translate(140.464 0)"/><rect class="b" width="14.489" height="12.074" transform="translate(187.286 0)"/><rect class="b" width="14.489" height="12.074" transform="translate(234.107 0)"/><rect class="b" width="14.489" height="12.074" transform="translate(280.929 0)"/><rect class="b" width="14.489" height="12.074" transform="translate(327.75 0)"/><rect class="b" width="14.489" height="12.074" transform="translate(372.444 0)"/><rect class="b" width="14.489" height="12.074" transform="translate(421.393 0)"/><rect class="b" width="14.489" height="12.074" transform="translate(468.215 0)"/><rect class="b" width="14.489" height="12.074" transform="translate(502.428 0)"/><rect class="b" width="14.489" height="12.074" transform="translate(555.554 0)"/><rect class="b" width="14.489" height="12.074" transform="translate(608.679 0)"/></g><g transform="translate(0 734.099)"><rect class="b" width="14.489" height="14.489" transform="translate(0 0)"/><rect class="b" width="14.489" height="14.489" transform="translate(53.126 0)"/><rect class="b" width="14.489" height="14.489" transform="translate(106.251 0)"/><rect class="b" width="14.489" height="14.489" transform="translate(140.464 0)"/><rect class="b" width="14.489" height="14.489" transform="translate(187.286 0)"/><rect class="b" width="14.489" height="14.489" transform="translate(234.107 0)"/><rect class="b" width="14.489" height="14.489" transform="translate(280.929 0)"/><rect class="b" width="14.489" height="14.489" transform="translate(327.75 0)"/><rect class="b" width="14.489" height="14.489" transform="translate(372.444 0)"/><rect class="b" width="14.489" height="14.489" transform="translate(421.393 0)"/><rect class="b" width="14.489" height="14.489" transform="translate(468.215 0)"/><rect class="b" width="14.489" height="14.489" transform="translate(502.428 0)"/><rect class="b" width="14.489" height="14.489" transform="translate(555.554 0)"/><rect class="b" width="14.489" height="14.489" transform="translate(608.679 0)"/></g><g transform="translate(0 130.4)"><rect class="b" width="14.489" height="14.489" transform="translate(0 0)"/><rect class="b" width="14.489" height="14.489" transform="translate(53.126 0)"/><rect class="b" width="14.489" height="14.489" transform="translate(106.251 0)"/><rect class="b" width="14.489" height="14.489" transform="translate(140.464 0)"/><rect class="b" width="14.489" height="14.489" transform="translate(187.286 0)"/><rect class="b" width="14.489" height="14.489" transform="translate(234.107 0)"/><rect class="b" width="14.489" height="14.489" transform="translate(280.929 0)"/><rect class="b" width="14.489" height="14.489" transform="translate(327.75 0)"/><rect class="b" width="14.489" height="14.489" transform="translate(372.444 0)"/><rect class="b" width="14.489" height="14.489" transform="translate(421.393 0)"/><rect class="b" width="14.489" height="14.489" transform="translate(468.215 0)"/><rect class="b" width="14.489" height="14.489" transform="translate(502.428 0)"/><rect class="b" width="14.489" height="14.489" transform="translate(555.554 0)"/><rect class="b" width="14.489" height="14.489" transform="translate(608.679 0)"/></g><g transform="translate(0 345.316)"><rect class="b" width="14.489" height="14.489" transform="translate(0 0)"/><rect class="b" width="14.489" height="14.489" transform="translate(53.126 0)"/><rect class="b" width="14.489" height="14.489" transform="translate(106.251 0)"/><rect class="b" width="14.489" height="14.489" transform="translate(140.464 0)"/><rect class="b" width="14.489" height="14.489" transform="translate(187.286 0)"/><rect class="b" width="14.489" height="14.489" transform="translate(234.107 0)"/><rect class="b" width="14.489" height="14.489" transform="translate(280.929 0)"/><rect class="b" width="14.489" height="14.489" transform="translate(327.75 0)"/><rect class="b" width="14.489" height="14.489" transform="translate(372.444 0)"/><rect class="b" width="14.489" height="14.489" transform="translate(421.393 0)"/><rect class="b" width="14.489" height="14.489" transform="translate(468.215 0)"/><rect class="b" width="14.489" height="14.489" transform="translate(502.428 0)"/><rect class="b" width="14.489" height="14.489" transform="translate(555.554 0)"/><rect class="b" width="14.489" height="14.489" transform="translate(608.679 0)"/></g><g transform="translate(0 562.649)"><rect class="b" width="14.489" height="12.074" transform="translate(0 0)"/><rect class="b" width="14.489" height="12.074" transform="translate(53.126 0)"/><rect class="b" width="14.489" height="12.074" transform="translate(106.251 0)"/><rect class="b" width="14.489" height="12.074" transform="translate(140.464 0)"/><rect class="b" width="14.489" height="12.074" transform="translate(187.286 0)"/><rect class="b" width="14.489" height="12.074" transform="translate(234.107 0)"/><rect class="b" width="14.489" height="12.074" transform="translate(280.929 0)"/><rect class="b" width="14.489" height="12.074" transform="translate(327.75 0)"/><rect class="b" width="14.489" height="12.074" transform="translate(372.444 0)"/><rect class="b" width="14.489" height="12.074" transform="translate(421.393 0)"/><rect class="b" width="14.489" height="12.074" transform="translate(468.215 0)"/><rect class="b" width="14.489" height="12.074" transform="translate(502.428 0)"/><rect class="b" width="14.489" height="12.074" transform="translate(555.554 0)"/><rect class="b" width="14.489" height="12.074" transform="translate(608.679 0)"/></g><g transform="translate(0 779.981)"><rect class="b" width="14.489" height="12.074" transform="translate(0 0)"/><rect class="b" width="14.489" height="12.074" transform="translate(53.126 0)"/><rect class="b" width="14.489" height="12.074" transform="translate(106.251 0)"/><rect class="b" width="14.489" height="12.074" transform="translate(140.464 0)"/><rect class="b" width="14.489" height="12.074" transform="translate(187.286 0)"/><rect class="b" width="14.489" height="12.074" transform="translate(234.107 0)"/><rect class="b" width="14.489" height="12.074" transform="translate(280.929 0)"/><rect class="b" width="14.489" height="12.074" transform="translate(327.75 0)"/><rect class="b" width="14.489" height="12.074" transform="translate(372.444 0)"/><rect class="b" width="14.489" height="12.074" transform="translate(421.393 0)"/><rect class="b" width="14.489" height="12.074" transform="translate(468.215 0)"/><rect class="b" width="14.489" height="12.074" transform="translate(502.428 0)"/><rect class="b" width="14.489" height="12.074" transform="translate(555.554 0)"/><rect class="b" width="14.489" height="12.074" transform="translate(608.679 0)"/></g><g transform="translate(0 173.866)"><rect class="b" width="14.489" height="12.074" transform="translate(0 0)"/><rect class="b" width="14.489" height="12.074" transform="translate(53.126 0)"/><rect class="b" width="14.489" height="12.074" transform="translate(106.251 0)"/><rect class="b" width="14.489" height="12.074" transform="translate(140.464 0)"/><rect class="b" width="14.489" height="12.074" transform="translate(187.286 0)"/><rect class="b" width="14.489" height="12.074" transform="translate(234.107 0)"/><rect class="b" width="14.489" height="12.074" transform="translate(280.929 0)"/><rect class="b" width="14.489" height="12.074" transform="translate(327.75 0)"/><rect class="b" width="14.489" height="12.074" transform="translate(372.444 0)"/><rect class="b" width="14.489" height="12.074" transform="translate(421.393 0)"/><rect class="b" width="14.489" height="12.074" transform="translate(468.215 0)"/><rect class="b" width="14.489" height="12.074" transform="translate(502.428 0)"/><rect class="b" width="14.489" height="12.074" transform="translate(555.554 0)"/><rect class="b" width="14.489" height="12.074" transform="translate(608.679 0)"/></g><g transform="translate(0 391.198)"><rect class="b" width="14.489" height="12.074" transform="translate(0 0)"/><rect class="b" width="14.489" height="12.074" transform="translate(53.126 0)"/><rect class="b" width="14.489" height="12.074" transform="translate(106.251 0)"/><rect class="b" width="14.489" height="12.074" transform="translate(140.464 0)"/><rect class="b" width="14.489" height="12.074" transform="translate(187.286 0)"/><rect class="b" width="14.489" height="12.074" transform="translate(234.107 0)"/><rect class="b" width="14.489" height="12.074" transform="translate(280.929 0)"/><rect class="b" width="14.489" height="12.074" transform="translate(327.75 0)"/><rect class="b" width="14.489" height="12.074" transform="translate(372.444 0)"/><rect class="b" width="14.489" height="12.074" transform="translate(421.393 0)"/><rect class="b" width="14.489" height="12.074" transform="translate(468.215 0)"/><rect class="b" width="14.489" height="12.074" transform="translate(502.428 0)"/><rect class="b" width="14.489" height="12.074" transform="translate(555.554 0)"/><rect class="b" width="14.489" height="12.074" transform="translate(608.679 0)"/></g><g transform="translate(0 606.115)"><rect class="b" width="14.489" height="14.489" transform="translate(0 0)"/><rect class="b" width="14.489" height="14.489" transform="translate(53.126 0)"/><rect class="b" width="14.489" height="14.489" transform="translate(106.251 0)"/><rect class="b" width="14.489" height="14.489" transform="translate(140.464 0)"/><rect class="b" width="14.489" height="14.489" transform="translate(187.286 0)"/><rect class="b" width="14.489" height="14.489" transform="translate(234.107 0)"/><rect class="b" width="14.489" height="14.489" transform="translate(280.929 0)"/><rect class="b" width="14.489" height="14.489" transform="translate(327.75 0)"/><rect class="b" width="14.489" height="14.489" transform="translate(372.444 0)"/><rect class="b" width="14.489" height="14.489" transform="translate(421.393 0)"/><rect class="b" width="14.489" height="14.489" transform="translate(468.215 0)"/><rect class="b" width="14.489" height="14.489" transform="translate(502.428 0)"/><rect class="b" width="14.489" height="14.489" transform="translate(555.554 0)"/><rect class="b" width="14.489" height="14.489" transform="translate(608.679 0)"/></g><g transform="translate(0 821.032)"><rect class="b" width="14.489" height="14.489" transform="translate(0 0)"/><rect class="b" width="14.489" height="14.489" transform="translate(53.126 0)"/><rect class="b" width="14.489" height="14.489" transform="translate(106.251 0)"/><rect class="b" width="14.489" height="14.489" transform="translate(140.464 0)"/><rect class="b" width="14.489" height="14.489" transform="translate(187.286 0)"/><rect class="b" width="14.489" height="14.489" transform="translate(234.107 0)"/><rect class="b" width="14.489" height="14.489" transform="translate(280.929 0)"/><rect class="b" width="14.489" height="14.489" transform="translate(327.75 0)"/><rect class="b" width="14.489" height="14.489" transform="translate(372.444 0)"/><rect class="b" width="14.489" height="14.489" transform="translate(421.393 0)"/><rect class="b" width="14.489" height="14.489" transform="translate(468.215 0)"/><rect class="b" width="14.489" height="14.489" transform="translate(502.428 0)"/><rect class="b" width="14.489" height="14.489" transform="translate(555.554 0)"/><rect class="b" width="14.489" height="14.489" transform="translate(608.679 0)"/></g></g></svg>