<svg xmlns="http://www.w3.org/2000/svg" width="23.806" height="27.44" viewBox="0 0 23.806 27.44"><defs><style>.a{fill:#fff;}</style></defs><g transform="translate(-1)"><path class="a" d="M12.987,0A11.913,11.913,0,0,0,1,11.987a11.51,11.51,0,0,0,3.6,8.562c.171.171,7.021,6.336,7.192,6.507a1.8,1.8,0,0,0,2.226,0c.171-.171,7.192-6.336,7.192-6.507a11.51,11.51,0,0,0,3.6-8.562A11.665,11.665,0,0,0,12.987,0Zm0,15.411a3.425,3.425,0,1,1,3.425-3.425A3.435,3.435,0,0,1,12.987,15.411Z" transform="translate(0)"/></g></svg>