<svg xmlns="http://www.w3.org/2000/svg" width="540.873" height="165.471" viewBox="0 0 540.873 165.471"><defs><style>.a{fill:#2852a0;}</style></defs><g transform="translate(-1073.416 -9681)"><g transform="matrix(-0.996, -0.087, 0.087, -0.996, 1566.317, 9849.268)"><g transform="translate(0 0)"><g transform="translate(32.094)"><path class="a" d="M458.7.053A4.685,4.685,0,0,0,454.86,1.2C449.267,6.2,443.382,11.2,437.368,16.06a4.7,4.7,0,0,0,5.9,7.31c6.137-4.956,12.145-10.06,17.856-15.172A4.7,4.7,0,0,0,458.7.053ZM422.635,29.2a4.682,4.682,0,0,0-3.474.853c-6.156,4.5-12.5,8.9-18.855,13.1a4.7,4.7,0,1,0,5.176,7.84c6.479-4.277,12.946-8.771,19.222-13.356a4.7,4.7,0,0,0-2.068-8.437ZM383.948,54.727a4.681,4.681,0,0,0-3.1.6c-6.582,3.905-13.317,7.68-20.016,11.223a4.7,4.7,0,1,0,4.391,8.3c6.835-3.614,13.705-7.465,20.419-11.448a4.7,4.7,0,0,0-1.7-8.684ZM342.976,76.378a4.679,4.679,0,0,0-2.683.387c-6.926,3.229-14,6.307-21.027,9.15a4.7,4.7,0,0,0,3.523,8.709c7.177-2.9,14.4-6.048,21.472-9.343a4.7,4.7,0,0,0-1.285-8.9ZM300.024,93.745a4.675,4.675,0,0,0-2.227.2c-7.219,2.483-14.575,4.793-21.862,6.863a4.7,4.7,0,0,0,2.569,9.037c7.45-2.118,14.97-4.479,22.349-7.017a4.7,4.7,0,0,0-.828-9.088ZM255.469,106.4a4.7,4.7,0,0,0-1.733.063c-7.436,1.672-15,3.149-22.474,4.39a4.7,4.7,0,1,0,1.538,9.267c7.652-1.269,15.388-2.781,23-4.491a4.7,4.7,0,0,0-.328-9.229Zm-45.681,7.581a4.647,4.647,0,0,0-1.209-.025c-7.559.813-15.237,1.417-22.821,1.794a4.7,4.7,0,0,0,.467,9.384c7.764-.387,15.623-1.005,23.359-1.838a4.7,4.7,0,0,0,.2-9.315ZM5.4,84.721a4.7,4.7,0,0,0-2.406,9.022c7.293,2.843,14.687,5.532,21.977,7.994a4.7,4.7,0,0,0,3.005-8.9C20.82,90.42,13.563,87.78,6.4,84.99A4.708,4.708,0,0,0,5.4,84.721Zm158.148,31.56a4.658,4.658,0,0,0-.674-.052c-7.584-.058-15.281-.335-22.877-.824a4.7,4.7,0,1,0-.6,9.374c7.773.5,15.649.785,23.41.843a4.7,4.7,0,0,0,.744-9.341ZM49.291,99.523a4.7,4.7,0,0,0-1.982,9.164c7.516,2.139,15.142,4.1,22.666,5.839a4.7,4.7,0,1,0,2.111-9.154c-7.369-1.7-14.841-3.625-22.206-5.72A4.783,4.783,0,0,0,49.291,99.523Zm68.05,13.793-.144-.02c-7.521-.905-15.184-2.042-22.656-3.359a4.7,4.7,0,1,0-1.63,9.252c7.64,1.347,15.474,2.508,23.163,3.434a4.7,4.7,0,0,0,1.268-9.307Z"/></g><g transform="translate(0 70.919)"><path class="a" d="M5.4.052a4.7,4.7,0,0,0-2.688,8.9c3.593,1.677,7.22,3.324,10.783,4.9a4.7,4.7,0,1,0,3.793-8.594c-3.5-1.545-7.071-3.165-10.6-4.815A4.7,4.7,0,0,0,5.4.052Z" transform="translate(0 0)"/></g></g></g><path class="a" d="M452.428,400.877l20.593-18.869a8.3,8.3,0,0,0,2.147-9.077h0a8.3,8.3,0,0,0-7.648-5.339l-27.928-.354a3.838,3.838,0,0,0-3.635,5.206h0a3.838,3.838,0,0,0,2.189,2.207l7.928,3.1a7.856,7.856,0,0,1,4.175,10.816l-3.857,7.756a3.838,3.838,0,0,0-.149,3.078l.006.016A3.839,3.839,0,0,0,452.428,400.877Z" transform="translate(1684.063 9206.975) rotate(59)"/></g></svg>