<svg xmlns="http://www.w3.org/2000/svg" xmlns:xlink="http://www.w3.org/1999/xlink" width="1920" height="1564" viewBox="0 0 1920 1564"><defs><style>.a{fill:#fff;}.b{clip-path:url(#a);}.c{opacity:0.2;fill:url(#b);}</style><clipPath id="a"><rect class="a" width="1920" height="1564" transform="translate(0 8906)"/></clipPath><linearGradient id="b" x1="0.65" y1="0.352" x2="0.339" y2="0.975" gradientUnits="objectBoundingBox"><stop offset="0.182" stop-color="#e8e8e8"/><stop offset="0.612" stop-color="#fff"/></linearGradient></defs><g class="b" transform="translate(0 -8906)"><path class="c" d="M2185.541,877.126c-3.973-42.565-24.619-263.693-173.147-324.107-260.191-105.831-522.42,440.354-929.5,427.648-222.683-6.95-240.923-210.39-592.38-242-81.03-7.287-353.07,4.556-423.152,139.639-51.7,99.662,35.764,242.46,70.08,298.485,248.839,406.267,696.049,254.666,1402.207,469.09,25.5,7.742,85.179,26.235,164.21,5.422C1941.86,1588.621,2216.26,1206.126,2185.541,877.126Z" transform="translate(82.838 8481.873) rotate(8)"/></g></svg>