<svg xmlns="http://www.w3.org/2000/svg" width="500.324" height="165.471" viewBox="0 0 500.324 165.471"><defs><style>.a{fill:#2852a0;}</style></defs><g transform="matrix(-0.996, 0.087, -0.087, -0.996, 547.507, 118.528)"><g transform="translate(43.824)"><g transform="translate(32.094)"><path class="a" d="M-2498.792,1088.569a4.685,4.685,0,0,1-3.838-1.144c-5.593-5.007-11.478-10.008-17.492-14.863a4.7,4.7,0,0,1-.7-6.605,4.7,4.7,0,0,1,6.606-.7c6.137,4.956,12.145,10.06,17.856,15.172a4.7,4.7,0,0,1,.367,6.633A4.676,4.676,0,0,1-2498.792,1088.569Zm-36.063-29.142a4.682,4.682,0,0,1-3.474-.853c-6.156-4.5-12.5-8.9-18.855-13.1a4.7,4.7,0,0,1-1.333-6.508,4.7,4.7,0,0,1,6.508-1.333c6.479,4.277,12.946,8.771,19.222,13.356a4.7,4.7,0,0,1,1.022,6.563A4.69,4.69,0,0,1-2534.855,1059.427Zm-38.687-25.531a4.681,4.681,0,0,1-3.1-.6c-6.582-3.905-13.317-7.68-20.016-11.223a4.7,4.7,0,0,1-1.957-6.347,4.694,4.694,0,0,1,6.348-1.957c6.835,3.614,13.705,7.465,20.419,11.448a4.7,4.7,0,0,1,1.643,6.436A4.688,4.688,0,0,1-2573.542,1033.9Zm-40.972-21.652a4.679,4.679,0,0,1-2.683-.387c-6.926-3.229-14-6.307-21.027-9.15a4.7,4.7,0,0,1-2.593-6.116A4.7,4.7,0,0,1-2634.7,994c7.177,2.9,14.4,6.048,21.472,9.343a4.7,4.7,0,0,1,2.274,6.243A4.7,4.7,0,0,1-2614.514,1012.244Zm-42.952-17.366a4.675,4.675,0,0,1-2.227-.2c-7.219-2.483-14.575-4.793-21.862-6.863a4.7,4.7,0,0,1-3.234-5.8,4.7,4.7,0,0,1,5.8-3.235c7.45,2.118,14.97,4.479,22.349,7.017a4.7,4.7,0,0,1,2.914,5.97A4.7,4.7,0,0,1-2657.466,994.878Zm-44.555-12.65a4.7,4.7,0,0,1-1.733-.063c-7.436-1.672-15-3.149-22.474-4.39a4.7,4.7,0,0,1-3.865-5.4,4.7,4.7,0,0,1,5.4-3.864c7.652,1.269,15.388,2.781,23,4.491a4.7,4.7,0,0,1,3.553,5.613A4.7,4.7,0,0,1-2702.021,982.227Zm-45.681-7.581a4.647,4.647,0,0,1-1.209.025c-7.559-.813-15.237-1.417-22.821-1.794a4.7,4.7,0,0,1-4.458-4.925,4.7,4.7,0,0,1,4.925-4.458c7.764.387,15.623,1.005,23.359,1.838a4.7,4.7,0,0,1,4.168,5.173A4.7,4.7,0,0,1-2747.7,974.646Zm-204.39,29.256a4.7,4.7,0,0,1-5.076-2.94,4.7,4.7,0,0,1,2.67-6.082c7.293-2.843,14.687-5.532,21.977-7.994a4.7,4.7,0,0,1,5.953,2.948,4.7,4.7,0,0,1-2.948,5.954c-7.154,2.415-14.411,5.055-21.57,7.845A4.708,4.708,0,0,1-2952.092,1003.9Zm158.148-31.561a4.658,4.658,0,0,1-.674.052c-7.584.058-15.281.335-22.877.824a4.7,4.7,0,0,1-4.989-4.385,4.7,4.7,0,0,1,4.385-4.989c7.773-.5,15.649-.785,23.41-.843a4.7,4.7,0,0,1,4.732,4.662A4.7,4.7,0,0,1-2793.944,972.341ZM-2908.2,989.1a4.7,4.7,0,0,1-5.215-3.36,4.7,4.7,0,0,1,3.232-5.8c7.516-2.139,15.142-4.1,22.666-5.839a4.7,4.7,0,0,1,5.633,3.521,4.7,4.7,0,0,1-3.521,5.633c-7.369,1.7-14.841,3.625-22.206,5.72A4.783,4.783,0,0,1-2908.2,989.1Zm68.05-13.793-.144.02c-7.521.905-15.184,2.042-22.656,3.359a4.7,4.7,0,0,1-5.441-3.811,4.7,4.7,0,0,1,3.811-5.441c7.64-1.347,15.474-2.508,23.163-3.434a4.7,4.7,0,0,1,5.225,4.1A4.7,4.7,0,0,1-2840.148,975.307Z" transform="translate(2957.49 -963)"/></g><g transform="translate(0 40.452)"><path class="a" d="M-2993.085,1028.871a4.7,4.7,0,0,1-4.958-2.659,4.7,4.7,0,0,1,2.27-6.243c3.593-1.677,7.22-3.324,10.783-4.9a4.7,4.7,0,0,1,6.194,2.4,4.7,4.7,0,0,1-2.4,6.193c-3.5,1.545-7.071,3.165-10.6,4.815A4.7,4.7,0,0,1-2993.085,1028.871Z" transform="translate(2998.485 -1014.671)"/></g></g></g></svg>