<svg xmlns="http://www.w3.org/2000/svg" xmlns:xlink="http://www.w3.org/1999/xlink" width="180.732" height="180.732" viewBox="0 0 180.732 180.732"><defs><style>.a{fill:#2852a0;}.b{fill:#fff;}.c{mix-blend-mode:difference;isolation:isolate;}.d{fill:none;stroke:#2852a0;stroke-linecap:round;stroke-linejoin:round;stroke-width:2px;}.e{filter:url(#c);}.f{filter:url(#a);}</style><filter id="a" x="0" y="0" width="180.732" height="180.732" filterUnits="userSpaceOnUse"><feOffset dx="3" dy="3" input="SourceAlpha"/><feGaussianBlur stdDeviation="1" result="b"/><feFlood flood-color="#777" flood-opacity="0.349"/><feComposite operator="in" in2="b"/><feComposite in="SourceGraphic"/></filter><filter id="c" x="9.067" y="9.066" width="162.598" height="162.599" filterUnits="userSpaceOnUse"><feOffset dx="3" dy="3" input="SourceAlpha"/><feGaussianBlur stdDeviation="1" result="d"/><feFlood flood-color="#777" flood-opacity="0.349"/><feComposite operator="in" in2="d"/><feComposite in="SourceGraphic"/></filter></defs><g transform="translate(-898.684 -9811)"><g transform="translate(898.684 9811)"><g class="f" transform="matrix(1, 0, 0, 1, 0, 0)"><ellipse class="a" cx="87.366" cy="87.366" rx="87.366" ry="87.366"/></g><g class="e" transform="matrix(1, 0, 0, 1, 0, 0)"><path class="b" d="M791.863,397.724a78.3,78.3,0,1,1,78.3-78.3A78.387,78.387,0,0,1,791.863,397.724Z" transform="translate(-704.5 -232.06)"/></g></g><g class="c" transform="translate(934.684 9864)"><path class="d" d="M812.63,457.26v.667a7.992,7.992,0,0,0,7.993,7.991h87.819a7.991,7.991,0,0,0,7.989-7.991v-.667Z" transform="translate(-812.63 -397.184)"/><path class="d" d="M905.121,377.346H827.211a7.991,7.991,0,0,0-7.992,7.991v52.085h93.9V385.337A7.992,7.992,0,0,0,905.121,377.346Zm-38.953,1.832a2.83,2.83,0,1,1-2.831,2.83A2.83,2.83,0,0,1,866.168,379.178Zm39.911,49.278a3,3,0,0,1-3,3H829.252a3,3,0,0,1-3-3V389.833a3,3,0,0,1,3-3h73.831a3,3,0,0,1,3,3Z" transform="translate(-814.265 -377.346)"/><path class="d" d="M855.108,419.351a9.908,9.908,0,1,0-8.949,0c-5.362,1.88-9.587,7.054-11.167,13.629h31.282C864.695,426.4,860.469,421.231,855.108,419.351Z" transform="translate(-818.181 -383.121)"/><path class="d" d="M910.509,419.351a9.908,9.908,0,1,0-8.949,0c-5.362,1.88-9.587,7.054-11.167,13.629h31.282C920.1,426.4,915.87,421.231,910.509,419.351Z" transform="translate(-831.934 -383.121)"/><g transform="translate(46.374 20.654)"><line class="d" x2="14.834" transform="translate(0 3.023)"/><line class="d" x2="3.023" y2="3.023" transform="translate(0 3.023)"/><line class="d" y1="3.023" x2="3.023"/><g transform="translate(0 6.49)"><line class="d" x1="14.834" transform="translate(0 3.023)"/><line class="d" x1="3.023" y1="3.023" transform="translate(11.811)"/><line class="d" x1="3.023" y2="3.023" transform="translate(11.811 3.023)"/></g></g></g></g></svg>