<svg xmlns="http://www.w3.org/2000/svg" width="24.839" height="24.839" viewBox="0 0 24.839 24.839">
  <defs>
    <style>
      .cls-1 {
        fill: #004290;
      }

      .cls-2, .cls-3 {
        fill: #fc9f0c;
      }

      .cls-3 {
        fill-rule: evenodd;
      }
    </style>
  </defs>
  <g id="icon_mobile" data-name="icon mobile" transform="translate(-101.779 -3424.997)">
    <path id="Path_1053" data-name="Path 1053" class="cls-1" d="M127.672,52.97a12.4,12.4,0,0,1,16.987-.53,16.306,16.306,0,0,0-2.778,1.7,9.333,9.333,0,1,0,3.252,4.144,10.14,10.14,0,0,1,2.43-1.349l.282-.122a12.421,12.421,0,1,1-20.173-3.845Z" transform="translate(-22.249 3375.665)"/>
    <path id="Path_1054" data-name="Path 1054" class="cls-2" d="M135.669,64.529a1.531,1.531,0,0,1,1.932-2.376,15.824,15.824,0,0,1,1.86,1.774c.027.03.052.062.076.093l.127.149c1.77-2.668,5.239-7.09,9.676-8.731a1.534,1.534,0,1,1,1.056,2.88c-5.41,2-9.316,9.414-9.327,9.435h0a1.53,1.53,0,0,1-2.727-.065,7.679,7.679,0,0,0-1.112-1.657l-.07-.074A12.56,12.56,0,0,0,135.669,64.529Z" transform="translate(-25.901 3373.684)"/>
    <path id="Path_1055" data-name="Path 1055" class="cls-1" d="M136.318,63.88a1.531,1.531,0,0,1,1.932-2.376,15.715,15.715,0,0,1,1.86,1.774c.026.03.052.061.075.092l.127.149c1.77-2.668,5.239-7.09,9.677-8.732a1.534,1.534,0,0,1,1.056,2.88c-5.409,2-9.315,9.414-9.327,9.435l0,0a1.529,1.529,0,0,1-2.727-.064,7.656,7.656,0,0,0-1.113-1.657l-.07-.074A12.5,12.5,0,0,0,136.318,63.88Z" transform="translate(-26.115 3373.897)"/>
    <path id="Path_1056" data-name="Path 1056" class="cls-3" d="M143.346,55.62l.046.032-.1.078-.025-.015a9.352,9.352,0,0,0-11.7,14.374l-.221-.214a9.352,9.352,0,0,1,12-14.255Z" transform="translate(-23.76 3374.154)"/>
  </g>
</svg>
