<svg xmlns="http://www.w3.org/2000/svg" xmlns:xlink="http://www.w3.org/1999/xlink" width="1980" height="488.738" viewBox="0 0 1980 488.738"><defs><style>.a{fill:#e6e6e6;opacity:0.17;}.b,.c,.d,.e,.f,.g,.m,.n{fill:#fff;}.c,.i{opacity:0.464;}.d,.j{opacity:0.505;}.e,.k{opacity:0.299;}.f,.l{opacity:0.172;}.g{opacity:0.191;}.h,.i,.j{fill:rgba(242,242,242,0.3);}.k,.l{fill:#e2e2e2;}.m{opacity:0.386;}.n{opacity:0.458;}.o{opacity:0.295;}.p,.q{fill:#f2f2f2;}.p{opacity:0.271;}.r{filter:url(#a);}</style><filter id="a" x="0" y="0" width="1980" height="488.738" filterUnits="userSpaceOnUse"><feOffset dy="20" input="SourceAlpha"/><feGaussianBlur stdDeviation="10" result="b"/><feFlood flood-color="#7682b7" flood-opacity="0.18"/><feComposite operator="in" in2="b"/><feComposite in="SourceGraphic"/></filter></defs><g transform="translate(30 -8735.862)"><g class="r" transform="matrix(1, 0, 0, 1, -30, 8735.86)"><rect class="a" width="1920" height="428.738" transform="translate(30 10)"/></g><g transform="translate(349.131 9015.868)"><circle class="b" cx="6.5" cy="6.5" r="6.5"/><circle class="b" cx="6.5" cy="6.5" r="6.5" transform="translate(0 24)"/><ellipse class="b" cx="6.5" cy="7" rx="6.5" ry="7" transform="translate(0 47)"/><ellipse class="c" cx="6.5" cy="7" rx="6.5" ry="7" transform="translate(24 47)"/><circle class="b" cx="6.5" cy="6.5" r="6.5" transform="translate(24 24)"/><circle class="d" cx="7" cy="7" r="7" transform="translate(47 47)"/></g><g transform="translate(1467.639 8800.063)"><path class="e" d="M0,0H4V24H0Z"/><path class="f" d="M0,0H4V27H0Z" transform="translate(7 9)"/></g><g transform="translate(499.131 8814.558)"><path class="e" d="M0,0H5V27H0Z"/><path class="g" d="M0,0H5V31H0Z" transform="translate(8 10)"/></g><g transform="translate(420.631 8830.437)"><circle class="h" cx="6.5" cy="6.5" r="6.5"/><circle class="h" cx="6.5" cy="6.5" r="6.5" transform="translate(0 24)"/><ellipse class="h" cx="6.5" cy="7" rx="6.5" ry="7" transform="translate(0 47)"/><ellipse class="i" cx="6.5" cy="7" rx="6.5" ry="7" transform="translate(24 47)"/><circle class="h" cx="6.5" cy="6.5" r="6.5" transform="translate(24 24)"/><circle class="j" cx="7" cy="7" r="7" transform="translate(47 47)"/></g><g transform="translate(1415.367 8936.536)"><path class="k" d="M0,0H4V24H0Z"/><path class="l" d="M0,0H4V27H0Z" transform="translate(7 9)"/></g><g transform="translate(1491.257 9063.438) rotate(180)"><path class="m" d="M3.821,0A3.821,3.821,0,1,1,0,3.821,3.821,3.821,0,0,1,3.821,0Z"/><circle class="n" cx="3.774" cy="3.774" r="3.774" transform="translate(0.174 14.077)"/><ellipse class="b" cx="3.774" cy="4.193" rx="3.774" ry="4.193" transform="translate(0.174 27.496)"/><ellipse class="b" cx="3.774" cy="4.193" rx="3.774" ry="4.193" transform="translate(14.431 27.496)"/><circle class="b" cx="3.774" cy="3.774" r="3.774" transform="translate(14.431 14.077)"/><circle class="b" cx="4.193" cy="4.193" r="4.193" transform="translate(27.85 27.496)"/></g><g class="o" transform="translate(1246.13 9016.358)"><path class="p" d="M8.33,0l8.33,14.487H0Z" transform="translate(0.291 17.201) rotate(-91)"/><path class="q" d="M8.33,0l8.33,14.487H0Z" transform="translate(16.949 16.91) rotate(-91)"/></g></g></svg>