<svg xmlns="http://www.w3.org/2000/svg" xmlns:xlink="http://www.w3.org/1999/xlink" width="617" height="1268" viewBox="0 0 617 1268"><defs><style>.a,.b{fill:#fff;}.b{stroke:#707070;}.c{clip-path:url(#a);}.d{clip-path:url(#b);}.e{fill:#2852a0;}.f,.i{fill:none;}.f{stroke:#e1e1e1;stroke-width:9px;}.f,.g{opacity:0.32;}.g{fill:rgba(255,255,255,0.24);}.h{stroke:none;}</style><clipPath id="a"><rect class="a" width="617" height="1268" transform="translate(1303 154)"/></clipPath><clipPath id="b"><rect class="b" width="890" height="1317" transform="translate(1030 0.393)"/></clipPath></defs><g transform="translate(-1303 -154)"><g class="c"><g class="d" transform="translate(249 153.607)"><path class="e" d="M155.358,119.516s110.408-175.589,378.094-98.9S852.395,168.751,818.327,361.253s-197.491,197.842,1.368,437.742,635.34,445.5,101.152,671.505S4.586,1467.719,3.492,1117.525,155.358,119.516,155.358,119.516Z" transform="matrix(-0.995, 0.105, -0.105, -0.995, 2364.254, 1233.758)"/></g></g><g class="f" transform="translate(1842.949 804.35)"><ellipse class="h" cx="25.612" cy="25.612" rx="25.612" ry="25.612"/><ellipse class="i" cx="25.612" cy="25.612" rx="21.112" ry="21.112"/></g><ellipse class="g" cx="25.612" cy="25.612" rx="25.612" ry="25.612" transform="translate(1530.129 341)"/></g></svg>