<svg xmlns="http://www.w3.org/2000/svg" xmlns:xlink="http://www.w3.org/1999/xlink" width="296.67" height="296.67" viewBox="0 0 296.67 296.67">
  <defs>
    <style>
      .cls-1, .cls-2 {
        fill: #fff;
      }

      .cls-3, .cls-4, .cls-5 {
        stroke: none;
      }

      .cls-4 {
        fill: #2852a0;
      }

      .cls-5 {
        fill: rgba(89,97,93,0.2);
      }

      .cls-6 {
        filter: url(#Ellipse_32);
      }
    </style>
    <filter id="Ellipse_32" x="0" y="0" width="296.67" height="296.67" filterUnits="userSpaceOnUse">
      <feOffset dy="15" input="SourceAlpha"/>
      <feGaussianBlur stdDeviation="10" result="blur"/>
      <feFlood flood-color="#151d41" flood-opacity="0.059"/>
      <feComposite operator="in" in2="blur"/>
      <feComposite in="SourceGraphic"/>
    </filter>
  </defs>
  <g id="ellipse_text_the_power" data-name="ellipse text the power" transform="translate(-432.746 -2476)">
    <g class="cls-6" transform="matrix(1, 0, 0, 1, 432.75, 2476)">
      <ellipse id="Ellipse_32-2" data-name="Ellipse 32" class="cls-1" cx="118.335" cy="118.335" rx="118.335" ry="118.335" transform="translate(30 15)"/>
    </g>
    <g id="Subtraction_19" data-name="Subtraction 19" class="cls-2" transform="translate(580.564 2518.438)">
      <path class="cls-3" d="M 84.57706451416016 84.82275390625 L 7.499993324279785 84.82275390625 L 7.499993324279785 7.832695007324219 C 10.71866321563721 8.115716934204102 13.91340065002441 8.578544616699219 17.0555534362793 9.218297004699707 C 22.50803375244141 10.32873725891113 27.87223434448242 11.98601722717285 32.99875259399414 14.14405727386475 C 38.0318717956543 16.2629566192627 42.88747406005859 18.88613700866699 47.43045425415039 21.9406566619873 C 51.92861175537109 24.96527671813965 56.16081237792969 28.44083786010742 60.00925445556641 32.27063751220703 C 63.85419464111328 36.09747695922852 67.34535217285156 40.30877685546875 70.38539123535156 44.78717803955078 C 73.45283508300781 49.30645751953125 76.08653259277344 54.13565826416016 78.21315002441406 59.14029693603516 C 80.37921142578125 64.23717498779297 82.04263305664062 69.57049560546875 83.15731048583984 74.99239349365234 C 83.82172393798828 78.22413635253906 84.29602813720703 81.51136016845703 84.57706451416016 84.82275390625 Z"/>
      <path class="cls-4" d="M 75.97480773925781 77.32274627685547 C 75.92166137695312 77.04885864257812 75.86709594726562 76.77577209472656 75.81096649169922 76.50274658203125 C 74.79635620117188 71.56764221191406 73.28227996826172 66.71311187744141 71.31046295166016 62.07340240478516 C 69.37374877929688 57.51564025878906 66.97459411621094 53.11671829223633 64.18003845214844 48.99948120117188 C 61.40833282470703 44.91635131835938 58.22485733032227 41.07632446289062 54.71883010864258 37.58679962158203 C 51.20835876464844 34.09332275390625 47.34809494018555 30.92316627502441 43.24567413330078 28.16464042663574 C 39.10338592529297 25.37950897216797 34.67670059204102 22.98795509338379 30.08893585205078 21.05658721923828 C 25.4168586730957 19.08985137939453 20.52809524536133 17.5794563293457 15.55914688110352 16.56750869750977 C 15.37290000915527 16.52958679199219 15.18664073944092 16.49238777160645 14.99998950958252 16.45582962036133 L 14.99998950958252 77.32274627685547 L 75.97480773925781 77.32274627685547 M 92.38185882568359 92.32274627685547 L 92.38117218017578 92.32274627685547 L 92.38185882568359 92.32274627685547 Z M 92.38185882568359 92.32274627685547 L -1.065705964720109e-05 92.32274627685547 L -1.065705964720109e-05 8.53207257023314e-06 C 6.247200012207031 0.005508532281965017 12.4886999130249 0.6345874667167664 18.55185699462891 1.86908745765686 C 24.48783111572266 3.077982187271118 30.32748985290527 4.882166385650635 35.90862274169922 7.231561183929443 C 41.38698959350586 9.537877082824707 46.67143630981445 12.39269256591797 51.61520004272461 15.71669292449951 C 56.50917434692383 19.00748252868652 61.11330413818359 22.78840255737305 65.29964447021484 26.9544563293457 C 69.48356628417969 31.11869239807129 73.28244018554688 35.70124435424805 76.59072875976562 40.57482528686523 C 79.93104553222656 45.49613952636719 82.79930877685547 50.755615234375 85.11580657958984 56.2071647644043 C 87.4761962890625 61.76127243041992 89.28890991210938 67.57340240478516 90.50367736816406 73.48206329345703 C 91.75025177001953 79.54558563232422 92.38235473632812 85.78585052490234 92.38235473632812 92.02956390380859 C 92.38235473632812 92.12685394287109 92.38217163085938 92.22474670410156 92.38185882568359 92.32203674316406 L 92.38185882568359 92.32274627685547 Z"/>
    </g>
    <g id="Path_650" data-name="Path 650" class="cls-2" transform="translate(493 2523.03)">
      <path class="cls-3" d="M86.762,0A86.76,86.76,0,1,1,22,29.023,86.762,86.762,0,0,1,86.762,0Z"/>
      <path class="cls-5" d="M 86.76177215576172 2 C 80.57786560058594 2 74.40791320800781 2.66876220703125 68.42337036132812 3.987716674804688 C 62.60239410400391 5.270614624023438 56.90255737304688 7.179901123046875 51.48220062255859 9.662551879882812 C 46.16160583496094 12.09947204589844 41.07443237304688 15.10470581054688 36.36201477050781 18.59475708007812 C 31.68760681152344 22.056640625 27.35829162597656 26.01274108886719 23.49429321289062 30.35319519042969 C 16.70120239257812 37.98381042480469 11.39511108398438 46.64306640625 7.723373413085938 56.09037780761719 C 3.92559814453125 65.86195373535156 1.999984741210938 76.18132781982422 1.999984741210938 86.76187896728516 C 1.999984741210938 92.51416778564453 2.579391479492188 98.26226043701172 3.722076416015625 103.8464736938477 C 4.83551025390625 109.2877578735352 6.496932983398438 114.6399536132812 8.660171508789062 119.7544250488281 C 10.78431701660156 124.7764739990234 13.41352844238281 129.6204223632812 16.47477722167969 134.1516723632812 C 19.50729370117188 138.640380859375 22.989990234375 142.8614501953125 26.82612609863281 146.6976013183594 C 30.66227722167969 150.5337371826172 34.88334655761719 154.0164184570312 39.37203979492188 157.0489501953125 C 43.90328979492188 160.1102142333984 48.74722290039062 162.7394256591797 53.76927185058594 164.8635711669922 C 58.88372802734375 167.0268096923828 64.23593902587891 168.688232421875 69.67720031738281 169.8016662597656 C 75.26141357421875 170.9443511962891 81.00948333740234 171.5237579345703 86.76177215576172 171.5237579345703 C 92.51406097412109 171.5237579345703 98.26213073730469 170.9443511962891 103.8463439941406 169.8016662597656 C 109.2876052856445 168.688232421875 114.6398010253906 167.0268096923828 119.7542495727539 164.8635711669922 C 124.7763214111328 162.7394256591797 129.6202239990234 160.1102142333984 134.1514892578125 157.0489501953125 C 138.6401977539062 154.0164184570312 142.8612518310547 150.5337371826172 146.6973876953125 146.6976013183594 C 150.5335388183594 142.8614501953125 154.0162200927734 138.640380859375 157.0487518310547 134.1516723632812 C 160.1099853515625 129.6204223632812 162.7391967773438 124.7764739990234 164.8633422851562 119.7544250488281 C 167.0265808105469 114.6399536132812 168.6880035400391 109.2877578735352 169.8014373779297 103.8464736938477 C 170.9441223144531 98.26226043701172 171.5235290527344 92.51416778564453 171.5235290527344 86.76187896728516 C 171.5235290527344 81.00959014892578 170.9441223144531 75.26149749755859 169.8014373779297 69.67728424072266 C 168.6880035400391 64.23602294921875 167.0265808105469 58.88380432128906 164.8633422851562 53.76935577392578 C 162.7391967773438 48.74728393554688 160.1099853515625 43.90335083007812 157.0487518310547 39.37210083007812 C 154.0162200927734 34.88337707519531 150.5335388183594 30.66233825683594 146.6973876953125 26.82618713378906 C 142.8612518310547 22.99002075195312 138.6401977539062 19.50732421875 134.1514892578125 16.47480773925781 C 129.6202239990234 13.41354370117188 124.7763214111328 10.78433227539062 119.7542495727539 8.660186767578125 C 114.6398010253906 6.4969482421875 109.2876052856445 4.835540771484375 103.8463439941406 3.722091674804688 C 98.26213073730469 2.57940673828125 92.51406097412109 2 86.76177215576172 2 M 86.76177215576172 0 C 134.678955078125 0 173.5235290527344 38.84461975097656 173.5235290527344 86.76187896728516 C 173.5235290527344 134.6791687011719 134.678955078125 173.5237579345703 86.76177215576172 173.5237579345703 C 38.84455871582031 173.5237579345703 -1.52587890625e-05 134.6791687011719 -1.52587890625e-05 86.76187896728516 C -1.52587890625e-05 64.62423706054688 8.291061401367188 44.42301940917969 22.00048828125 29.02333068847656 C 37.82867431640625 11.24342346191406 60.98220062255859 0 86.76177215576172 0 Z"/>
    </g>
  </g>
</svg>
