<svg id="Group_2876" data-name="Group 2876" xmlns="http://www.w3.org/2000/svg" width="40" height="40" viewBox="0 0 40 40">
  <path id="Exclusion_1" data-name="Exclusion 1" d="M20,40A20,20,0,0,1,5.858,5.858,20,20,0,0,1,34.142,34.142,19.869,19.869,0,0,1,20,40ZM16.4,11.429a.407.407,0,0,0-.187.046A.4.4,0,0,0,16,11.83V27.909a.4.4,0,0,0,.215.356.415.415,0,0,0,.187.046.406.406,0,0,0,.228-.072L28.288,20.2a.4.4,0,0,0,.174-.33.406.406,0,0,0-.174-.331L16.631,11.5A.405.405,0,0,0,16.4,11.429Z" transform="translate(0 0)" fill="#fff"/>
</svg>
