<svg xmlns="http://www.w3.org/2000/svg" width="157.035" height="157.035" viewBox="0 0 157.035 157.035"><defs><style>.a{fill:#fab120;}.b{fill:#2852a0;}.c{fill:none;stroke:#2852a0;stroke-width:2px;}</style></defs><g transform="translate(8132.615 -7828.036)"><circle class="a" cx="55.52" cy="55.52" r="55.52" transform="translate(-8132.615 7906.553) rotate(-45)"/><g transform="translate(-8778.638 6997.513)"><path class="b" d="M764.469,930.543c0,24.212-17.146,44-38.862,45.708,1.008.079,2.014.167,3.041.167,23.142,0,41.905-20.539,41.905-45.875s-18.763-45.875-41.905-45.875c-1.028,0-2.033.088-3.041.169C747.323,886.55,764.469,906.332,764.469,930.543Z" transform="translate(3.012 -21.504)"/><path class="c" d="M43.83,0A43.83,43.83,0,1,1,0,43.83,43.83,43.83,0,0,1,43.83,0Z" transform="translate(668.111 941.626) rotate(-76.717)"/></g><path class="b" d="M28.661,13.672a1.162,1.162,0,0,1,0,1.638l-2.987,2.969a1.14,1.14,0,0,1-1.619,0L14.5,8.723,4.944,18.278a1.14,1.14,0,0,1-1.619,0L.337,15.309a1.162,1.162,0,0,1,0-1.638L13.689.337a1.14,1.14,0,0,1,1.619,0Z" transform="matrix(0.017, -1, 1, 0.017, -8067.357, 7920.885)"/></g></svg>