<svg xmlns="http://www.w3.org/2000/svg" width="65.556" height="65.557" viewBox="0 0 65.556 65.557"><defs><style>.a{fill:#004290;}.b,.d{fill:#fc9f0c;}.c{fill:#fab120;}.d{fill-rule:evenodd;}</style></defs><g transform="translate(-124.028 -49.332)"><path class="a" d="M133.645,58.935a32.73,32.73,0,0,1,44.834-1.4,43.036,43.036,0,0,0-7.333,4.488,24.633,24.633,0,1,0,8.582,10.938,26.762,26.762,0,0,1,6.415-3.559l.743-.322a32.783,32.783,0,1,1-53.241-10.148Z" transform="translate(0 0)"/><path class="b" d="M136.6,79.586a4.041,4.041,0,0,1,5.1-6.271A41.767,41.767,0,0,1,146.6,78c.071.08.136.163.2.244l.336.395c4.67-7.043,13.827-18.714,25.539-23.044a4.048,4.048,0,1,1,2.788,7.6c-14.278,5.281-24.587,24.845-24.617,24.9l-.007,0a4.037,4.037,0,0,1-7.2-.172,20.265,20.265,0,0,0-2.935-4.373l-.186-.195A33.144,33.144,0,0,0,136.6,79.586Z" transform="translate(8.518 4.623)"/><path class="c" d="M137.244,78.938a4.042,4.042,0,0,1,5.1-6.271,41.479,41.479,0,0,1,4.909,4.683c.069.08.136.161.2.244l.336.395c4.672-7.043,13.827-18.714,25.54-23.046a4.048,4.048,0,1,1,2.786,7.6c-14.277,5.281-24.585,24.847-24.615,24.9l-.009-.005a4.036,4.036,0,0,1-7.2-.17,20.208,20.208,0,0,0-2.937-4.373l-.184-.2A32.984,32.984,0,0,0,137.244,78.938Z" transform="translate(9.018 4.124)"/><path class="d" d="M167.5,58.416l.12.085-.269.207-.067-.041A24.683,24.683,0,0,0,136.413,96.6l-.584-.564A24.682,24.682,0,0,1,167.5,58.416Z" transform="translate(3.524 3.525)"/></g></svg>