<svg xmlns="http://www.w3.org/2000/svg" width="157.035" height="157.035" viewBox="0 0 157.035 157.035"><defs><style>.a{fill:#fab120;}.b{fill:#2852a0;}.c{fill:none;stroke:#2852a0;stroke-width:2px;}</style></defs><g transform="translate(7975.581 -7828.036)"><circle class="a" cx="55.52" cy="55.52" r="55.52" transform="translate(-7975.581 7906.553) rotate(-45)"/><g transform="translate(-7944.79 7853.827)"><path class="b" d="M731.692,930.543c0,24.212,17.145,44,38.862,45.708-1.008.079-2.014.167-3.041.167-23.142,0-41.905-20.539-41.905-45.875s18.763-45.875,41.905-45.875c1.028,0,2.033.088,3.041.169C748.837,886.55,731.692,906.331,731.692,930.543Z" transform="translate(-725.607 -877.816)"/><path class="c" d="M43.829,87.659A43.829,43.829,0,1,0,0,43.83,43.829,43.829,0,0,0,43.829,87.659Z" transform="translate(20.14 105.453) rotate(-103.283)"/></g><path class="b" d="M17.265-1.771a1.162,1.162,0,0,0,0-1.637L14.278-6.377a1.14,1.14,0,0,0-1.619,0L3.1,3.178-6.452-6.377a1.14,1.14,0,0,0-1.619,0l-2.987,2.969a1.162,1.162,0,0,0,0,1.637L2.294,11.563a1.14,1.14,0,0,0,1.619,0Z" transform="matrix(-0.017, -1, 1, -0.017, -7894.602, 7909.698)"/></g></svg>