<svg xmlns="http://www.w3.org/2000/svg" xmlns:xlink="http://www.w3.org/1999/xlink" width="1920" height="1320" viewBox="0 0 1920 1320"><defs><style>.a{fill:#fff;}.b{clip-path:url(#a);}.c{opacity:0.2;fill:url(#b);}</style><clipPath id="a"><rect class="a" width="1920" height="1320" transform="translate(0 6620.601)"/></clipPath><linearGradient id="b" x1="0.65" y1="0.352" x2="0.339" y2="0.975" gradientUnits="objectBoundingBox"><stop offset="0.182" stop-color="#e8e8e8"/><stop offset="0.612" stop-color="#fff"/></linearGradient></defs><g transform="translate(0 -6517)"><g class="b" transform="translate(0 -103.601)"><path class="c" d="M5019.109,955.63c-11.426-107.288-70.8-664.653-421.937-824.023-615.13-279.18-1202.67,1081.961-2157.48,1029.787-522.3-28.54-575.159-541.285-1400.529-638.265-190.292-22.356-827.355-6.064-984.92,330.316C-62,1101.621,150.109,1465.232,233.325,1607.888c603.436,1034.489,1644.152,675.272,3310,1249.8,60.149,20.745,200.958,70.234,385.171,21.793C4483.25,2733.6,5107.444,1784.894,5019.109,955.63Z" transform="translate(163.346 5920.19) rotate(15)"/></g></g></svg>