<svg xmlns="http://www.w3.org/2000/svg" width="53.622" height="53.622" viewBox="0 0 53.622 53.622"><defs><style>.a{fill:#fff;}</style></defs><path class="a" d="M26.811,53.622A26.811,26.811,0,0,1,7.853,7.853,26.811,26.811,0,0,1,45.769,45.769,26.636,26.636,0,0,1,26.811,53.622Zm-4.823-38.3a.546.546,0,0,0-.251.061.539.539,0,0,0-.288.478V37.413a.539.539,0,0,0,.288.478.556.556,0,0,0,.251.062.545.545,0,0,0,.306-.1L37.921,27.079a.535.535,0,0,0,.233-.443.544.544,0,0,0-.233-.444L22.294,15.415A.543.543,0,0,0,21.988,15.321Z" transform="translate(0 0)"/></svg>